<mxfile host="app.diagrams.net" modified="2024-04-29T13:50:25.788Z" agent="Mozilla/5.0 (Windows NT 10.0; Win64; x64) AppleWebKit/537.36 (KHTML, like Gecko) Chrome/124.0.0.0 Safari/537.36" version="24.3.0" etag="BENBWDEwvkY-jO7gyu1F" type="github">
  <diagram name="Page-1" id="bM4PuII8dpiMSD0iRSCY">
    <mxGraphModel>
      <root>
        <mxCell id="0" />
        <mxCell id="1" parent="0" />
      </root>
    </mxGraphModel>
  </diagram>
</mxfile>
